<svg xmlns="http://www.w3.org/2000/svg" viewBox="0 0 640 640"><defs><style>.cls-1{fill:#f9fafb;}.cls-2{fill:#e95635;}.cls-3{fill:#242325;}</style></defs><g id="Option_A_Colors_1" data-name="Option A_Colors 1"><path class="cls-1" d="M176.5,334.82C200,392,272.66,458.88,344.49,438.55c70.31-19.88,64.18-88.32,59.71-138.29-1.17-13.1-2.19-24.4-1.81-33.75.76-18.89,24.17-32.26,43-43a171.56,171.56,0,0,0,15.18-9.3,4.44,4.44,0,0,0-1.23-7.76c-10.9-3.71-32.7-5.6-48.61-7-5.33-.46-10.35-.9-14.35-1.34-48.1-5.34-83.38,1.49-105.81,22.94-19.71,18.86-26.13,44.35-31.8,66-3.52,13.45-6.85,26.15-13.06,35.47-11,16.55-43.13,8.95-59,5.3l-3.24-.73c-2.42-.53-2.92-2.25-4.92-.25-1.62,1.62-2.95,2.69-2,5Z"/><path class="cls-2" d="M324.55,447.17c121.53-20.26,80.15-133.44,82-178.76.87-21.71,41-37.19,56.12-48.43A9.51,9.51,0,0,0,460,203.36c-15.16-5.14-58.48-9.14-74.72-10.94V308.88s0,12.66-5.07,15.19-116.46-22.78-119,58.24C259,453.17,324.55,447.17,324.55,447.17Z"/><circle class="cls-3" cx="339.74" cy="242.09" r="12.66"/><path class="cls-3" d="M472.25,208.46a14.53,14.53,0,0,0-9.7-11.53c-11.77-4-37.53-6.07-58.23-7.73l-8.6-.71c-2.72-.29-5.41-.54-8.05-.75l-.53-.06c-.11,0-.22,0-.34,0-45.84-3.44-79.44,5.65-102.46,27.66-21.79,20.84-28.89,47.94-34.59,69.71-3.45,13.15-6.43,24.51-11.7,32.42-7.15,10.74-37.81,3.7-49.34,1l-3.34-.76a14.65,14.65,0,0,0-16.69,19.91c13.1,31.81,38.41,63.81,67.71,85.6,19.64,14.61,48,29.76,81,29.76A108.52,108.52,0,0,0,347,448.89c35.72-10.11,53.74-31.46,62.35-56.48,10.5-30,7.34-65.36,4.86-93-1.14-12.75-2.12-23.75-1.77-32.44a13.59,13.59,0,0,1,.63-3.54C417.21,251.73,436,241,450.18,232.9a175.42,175.42,0,0,0,16.2-10,15.6,15.6,0,0,0,5.87-14.47ZM178.05,333.82a4.53,4.53,0,0,1,5.15-6.17l3.24.74c15.91,3.65,49,11.25,60-5.3,6.21-9.32,9.54-22,13.07-35.48,5.66-21.6,12.08-46.09,31.79-65,21-20,52.28-28.19,95.55-24.82,2.27.24,5,.49,8,.74l1.27.13c4,.45,9,.89,14.35,1.35,15.91,1.38,37.71,3.28,48.62,7a4.35,4.35,0,0,1,2.95,3.52,4.72,4.72,0,0,1-.09,1.86,4.34,4.34,0,0,1-1.47,1.86,169.75,169.75,0,0,1-15.17,9.3C428.77,233,408.65,244.53,403.56,260a24.12,24.12,0,0,0-1.39,7.07c-.38,9.35.64,20.66,1.81,33.75,2.37,26.44,5.19,58.05-3.08,84.91-7.45,23.67-23.65,43.59-56.57,52.9l-.14,0c-24.22,6-49.33,2-62.58-2.36C234.45,419.71,194.58,374,178.05,333.82Z"/></g></svg>